# AST/ASF file generated using VICON BodyLanguage
# -----------------------------------------------
:version 1.10
:name VICON
:units
  mass 1.0
  length 0.1
  angle deg
:documentation
   .ast/.asf automatically generated from VICON data using
   VICON BodyBuilder and BodyLanguage model FULLBODY5.MOD
:root
   order TX TY TZ RZ RY RX
   axis XYZ
   position 0 0 0  
   orientation 0 -0 0 
:bonedata
  begin
     id 1 
     name lhipjoint
     direction 0.969109 -0.218487 0.11442 
     length 0.544217 
     axis 0 -0 0  XYZ
  end
  begin
     id 2 
     name lfemur
     direction 0.173648 -0.984808 0  
     length 1.81499  
     axis 0 -0 10  XYZ
    dof rx ry rz
    limits (-180.0 180.0)
           (-180.0 180.0)
           (-180.0 180.0)
  end
  begin
     id 3 
     name ltibia
     direction 0.173515 -0.984831 0   
     length 1.55296   
     axis 0 -0 10   XYZ
    dof rx ry rz
    limits (-180.0 180.0)
           (-180.0 180.0)
           (-180.0 180.0)
  end
  begin
     id 4 
     name lfoot
     direction 7.36097e-012 -0.333012 0.942922   
     length 0.509062   
     axis -90 -1.73656e-015 10   XYZ
    dof rx ry rz
    limits (-180.0 180.0)
           (-180.0 180.0)
           (-180.0 180.0)
  end
  begin
     id 5 
     name ltoes
     direction 7.7847e-012 -4.42403e-011 1   
     length 0.249732   
     axis -90 -1.73656e-015 10   XYZ
    dof rx ry rz
    limits (-180.0 180.0)
           (-180.0 180.0)
           (-180.0 180.0)
  end
  begin
     id 6 
     name rhipjoint
     direction -0.966745 -0.226554 0.118645   
     length 0.524838  
     axis 0 -0 0  XYZ 
  end
  begin
     id 7 
     name rfemur
     direction -0.173648 -0.984808 0   
     length 1.84625   
     axis 0 -0 -10   XYZ
    dof rx ry rz
    limits (-180.0 180.0)
           (-180.0 180.0)
           (-180.0 180.0)
  end
  begin
     id 8 
     name rtibia
     direction -0.173714 -0.984796 0   
     length 1.577   
     axis 0 -0 -10   XYZ
    dof rx ry rz
    limits (-180.0 180.0)
           (-180.0 180.0)
           (-180.0 180.0)
 end
 begin
     id 9 
     name rfoot
     direction -0.0183819 -0.0406144 0.999006   
     length 0.490111  
     axis -90 1.73656e-015 -10   XYZ
    dof rx ry rz
    limits (-180.0 180.0)
           (-180.0 180.0)
           (-180.0 180.0)
  end
  begin
     id 10 
     name rtoes
     direction -7.79087e-012 -4.42375e-011 1   
     length 0.245053   
     axis -90 1.73656e-015 -10   XYZ
    dof rx ry rz
    limits (-180.0 180.0)
           (-180.0 180.0)
           (-180.0 180.0)
  end
  begin
     id 11 
     name lowerback
     direction -0.0664844 0.980601 0.184393   
     length 0.458979   
     axis 0 -0 0   XYZ
    dof rx ry rz
    limits (-180.0 180.0)
           (-180.0 180.0)
           (-180.0 180.0)
  end
  begin
     id 12 
     name upperback
     direction 0.0135995 0.999573 0.02588   
     length 0.463983   
     axis 0 -0 0   XYZ
    dof rx ry rz
    limits (-180.0 180.0)
           (-180.0 180.0)
           (-180.0 180.0)
  end
  begin
     id 13 
     name thorax
     direction 0.0468402 0.997311 -0.0563691   
     length 0.482746   
     axis 0 -0 0   XYZ
    dof rx ry rz
    limits (-180.0 180.0)
           (-180.0 180.0)
           (-180.0 180.0)
  end
  begin
     id 14 
     name lowerneck
     direction -0.00174311 0.988586 -0.150647   
     length 0.364383   
     axis 0 -0 0   XYZ
    dof rx ry rz
    limits (-180.0 180.0)
           (-180.0 180.0)
           (-180.0 180.0)
  end
  begin
     id 15 
     name upperneck
     direction -0.02653 0.999379 -0.0231908   
     length 0.361006   
     axis 0 -0 0   XYZ
    dof rx ry rz
    limits (-180.0 180.0)
           (-180.0 180.0)
           (-180.0 180.0)
  end
  begin
     id 16
     name head
     direction -0.00819207 0.999941 0.00714285  
     length 0.378714  
     axis 0 -0 0   XYZ
    dof rx ry rz
    limits (-180.0 180.0)
           (-180.0 180.0)
           (-180.0 180.0)
  end
  begin
     id 17 
     name lshoulderjoint
     direction 0.981627 -0.190809 0  
     length 0.612969  
     axis 0 -0 -11   XYZ
    dof rx ry rz
    limits (-180.0 180.0)
           (-180.0 180.0)
           (-180.0 180.0)
  end
  begin
     id 18 
     name lhumerus
     direction 0.48481 -0.87462 -9.72962e-027   
     length 1.19637   
     axis -180 5.14477e-009 -151   XYZ
    dof rx ry rz
    limits (-180.0 180.0)
           (-180.0 180.0)
           (-180.0 180.0)
  end
  begin
     id 19
     name lradius
     direction 0.48481 -0.87462 -2.35761e-026   
     length 0.637735   
     axis -180 5.14477e-009 -151   XYZ
    dof rx ry rz
    limits (-180.0 180.0)
           (-180.0 180.0)
           (-180.0 180.0)
  end
  begin
     id 20
     name lwrist
     direction 0.48481 -0.87462 -5.51856e-026   
     length 0.318868   
     axis -180 5.14477e-009 -151   XYZ
    dof rx ry rz
    limits (-180.0 180.0)
           (-180.0 180.0)
           (-180.0 180.0)
  end
  begin
     id 21 
     name lhand
     direction 0.477747 -0.861928 -0.169816   
     length 0.29526   
     axis -180 5.14477e-009 -151   XYZ
    dof rx ry rz
    limits (-180.0 180.0)
           (-180.0 180.0)
           (-180.0 180.0)
  end
  begin
     id 22 
     name rshoulderjoint
     direction -0.981627 -0.190809 0   
     length 0.572347  
     axis 0 -0 11   XYZ 
    dof rx ry rz
    limits (-180.0 180.0)
           (-180.0 180.0)
           (-180.0 180.0)
  end
  begin
     id 23 
     name rhumerus
     direction -0.48481 -0.87462 1.64836e-026  
     length 1.28846   
     axis 180 5.14477e-009 151   XYZ
    dof rx ry rz
    limits (-180.0 180.0)
           (-180.0 180.0)
           (-180.0 180.0)
  end
  begin
     id 24 
     name rradius
     direction -0.48481 -0.87462 2.86827e-026   
     length 0.62107   
     axis 180 5.14477e-009 151   XYZ
    dof rx ry rz
    limits (-180.0 180.0)
           (-180.0 180.0)
           (-180.0 180.0)
  end
  begin
     id 25 
     name rwrist
     direction -0.48481 -0.87462 5.20942e-026   
     length 0.310535   
     axis 180 5.14477e-009 151   XYZ
    dof rx ry rz
    limits (-180.0 180.0)
           (-180.0 180.0)
           (-180.0 180.0)
  end
  begin
     id 26
     name rhand
     direction -0.477664 -0.861515 -0.172133   
     length 0.291321   
     axis 180 5.14477e-009 151   XYZ
    dof rx ry rz
    limits (-180.0 180.0)
           (-180.0 180.0)
           (-180.0 180.0)
  end
:hierarchy
  begin
    root lhipjoint rhipjoint lowerback 
    lhipjoint lfemur
    lfemur ltibia
    ltibia lfoot
    lfoot ltoes
    rhipjoint rfemur
    rfemur rtibia
    rtibia rfoot
    rfoot rtoes
    lowerback upperback
    upperback thorax
    thorax lowerneck lshoulderjoint rshoulderjoint
    lowerneck upperneck
    upperneck head
    lshoulderjoint lhumerus
    lhumerus lradius
    lradius lwrist
    lwrist lhand
    rshoulderjoint rhumerus
    rhumerus rradius
    rradius rwrist
    rwrist rhand
  end

:FULLY-SPECIFIED
:DEGREES
2232
root 9.08745 3.66082 -0.387163 285.006 71.2026 80.4769
lowerback -26.4507 -1.88696 -10.334
upperback -7.29097 0.97275 -0.709395
thorax 6.33727 0.702055 5.47432
lowerneck 16.072 -2.88057 0.393639
upperneck 6.62569 -3.28935 -4.45048
head -0.672262 -1.36317 -1.3031
rshoulderjoint -2.59034 7.88273 -29.2564
rhumerus 346.749 -8.14949 -412.131
rradius 25.3311 1.25234e-014 -1.64594e-013
rwrist 3.82777e-014 4.36516 -3.14994e-013
rhand 4.87894 -3.70655 30.7755
lshoulderjoint -1.94361 -5.69633 29.8754
lhumerus 360.228 -3.47923 415.077
lradius 21.9411 2.54444e-014 -8.90555e-014
lwrist 1.86811e-013 -9.07522 -1.5581e-013
lhand 8.85847 7.46774 -33.0716
rfemur -25.381 13.6022 3.45263
rtibia 25.0932 -7.95139e-015 2.38542e-015
rfoot -169.513 -42.8673 153.963
rtoes 2.54444e-014 -4.86029e-014 -5.32743e-014
lfemur -12.5506 -7.92471 -19.6138
ltibia -4.37326e-014 1.74931e-014 1.98785e-014
lfoot -6.43556 7.12811 9.83737
ltoes -5.63058e-014 -6.86731e-014 4.21423e-014
2233
root 9.09778 3.66121 -0.384636 283.871 71.1904 81.4777
lowerback -26.6777 -1.90884 -10.2
upperback -7.342 0.941422 -0.66558
thorax 6.40028 0.690942 5.44173
lowerneck 16.146 -2.89528 0.413906
upperneck 6.6803 -3.29688 -4.50004
head -0.668421 -1.36248 -1.32185
rshoulderjoint -2.68031 8.16933 -29.2344
rhumerus 346.579 -8.18517 -412.206
rradius 25.2719 -3.84648e-014 -5.48646e-014
rwrist 3.44501e-013 4.36886 -9.17074e-014
rhand 4.91993 -3.73752 30.5959
lshoulderjoint -1.93161 -5.68624 29.7979
lhumerus 359.83 -3.61897 415.096
lradius 21.7402 1.74931e-014 1.4074e-013
lwrist 5.02807e-013 -9.32225 3.26543e-013
lhand 8.87718 7.7899 -33.1489
rfemur -24.9322 13.9855 3.57502
rtibia 24.4275 -1.27222e-014 -9.54166e-015
rfoot -169.493 -42.9897 153.17
rtoes 7.15625e-014 -2.06736e-014 -3.57812e-014
lfemur -12.4731 -8.25825 -19.4023
ltibia 4.92986e-014 1.27222e-014 -3.18055e-015
lfoot -6.47204 7.15878 9.87516
ltoes -2.20253e-013 7.77058e-014 4.07509e-014
2234
root 9.1081 3.66204 -0.382383 282.802 71.1784 82.3598
lowerback -26.8987 -1.91421 -10.0061
upperback -7.38986 0.911993 -0.609434
thorax 6.4647 0.680438 5.38905
lowerneck 16.1764 -2.9095 0.444588
upperneck 6.76462 -3.30057 -4.55451
head -0.647891 -1.36055 -1.34457
rshoulderjoint -2.65584 8.11167 -29.1978
rhumerus 346.545 -7.70744 -412.238
rradius 25.1961 -2.47114e-014 -3.97569e-015
rwrist -5.13517e-013 4.30265 5.50196e-014
rhand 4.83637 -3.79102 30.3815
lshoulderjoint -1.90566 -5.63529 29.7183
lhumerus 359.405 -3.73972 415.141
lradius 21.5206 6.36111e-015 -1.4392e-013
lwrist -6.54401e-013 -9.37928 -3.73138e-013
lhand 8.95833 7.93462 -33.291
rfemur -24.4638 14.365 3.76358
rtibia 23.7329 -4.77083e-015 1.27222e-014
rfoot -169.58 -43.1508 152.501
rtoes -1.11319e-013 7.38485e-014 1.06549e-013
lfemur -12.3844 -8.55717 -19.1521
ltibia -6.91771e-014 1.11319e-014 4.77083e-015
lfoot -6.52447 7.10967 9.90076
ltoes 7.11898e-014 -5.59152e-014 -1.11319e-014
2235
root 9.11768 3.66317 -0.380031 281.763 71.1617 83.1995
lowerback -27.0794 -1.90907 -9.81523
upperback -7.45772 0.890723 -0.549007
thorax 6.48488 0.677418 5.34418
lowerneck 16.257 -2.92812 0.494161
upperneck 6.82311 -3.30786 -4.60271
head -0.644519 -1.35898 -1.36798
rshoulderjoint -2.70047 8.26285 -29.1698
rhumerus 346.419 -7.74463 -412.283
rradius 25.0887 1.09332e-015 4.05521e-014
rwrist -7.65465e-014 4.27722 7.57491e-014
rhand 4.92772 -3.70332 30.1116
lshoulderjoint -1.92277 -5.70268 29.6677
lhumerus 358.921 -3.64451 415.188
lradius 21.2845 -1.59028e-014 2.14687e-014
lwrist -5.80338e-014 -9.42732 3.92937e-014
lhand 9.02523 8.04079 -33.3969
rfemur -24.0227 14.9067 3.92363
rtibia 23.0386 -9.54166e-015 -1.43125e-014
rfoot -169.754 -43.2996 151.756
rtoes 4.29375e-014 -4.98453e-014 -2.46493e-014
lfemur -12.308 -8.84083 -18.8856
ltibia 2.3059e-014 6.36111e-015 4.77083e-015
lfoot -6.58395 7.11619 9.94702
ltoes -7.29105e-014 -2.52626e-014 1.98785e-016
2236
root 9.12729 3.66449 -0.377712 280.858 71.1134 83.9123
lowerback -27.3005 -1.88627 -9.61216
upperback -7.51783 0.893596 -0.491152
thorax 6.52988 0.684492 5.29795
lowerneck 16.3344 -2.94301 0.502687
upperneck 6.85413 -3.31975 -4.61733
head -0.647897 -1.36152 -1.37313
rshoulderjoint -2.68252 8.23886 -29.1055
rhumerus 346.366 -7.43213 -412.27
rradius 24.9716 4.1546e-014 2.29795e-013
rwrist -3.50792e-013 4.17512 4.02613e-013
rhand 4.93243 -3.71804 29.8332
lshoulderjoint -1.93265 -5.74601 29.6258
lhumerus 358.437 -3.18179 415.299
lradius 21.0243 1.90833e-014 5.96354e-015
lwrist -5.87434e-013 -9.80083 -9.94523e-014
lhand 9.04715 8.14236 -33.4348
rfemur -23.6201 15.6218 4.02989
rtibia 22.3161 4.77083e-014 1.27222e-014
rfoot -170.031 -43.447 150.943
rtoes -3.02153e-014 4.22517e-013 1.41535e-013
lfemur -12.2532 -9.08244 -18.6272
ltibia -5.1684e-014 -1.11319e-014 -2.62396e-014
lfoot -6.63467 7.08825 9.98972
ltoes 4.18939e-014 1.67341e-013 4.41302e-014
2237
root 9.13601 3.66616 -0.375628 279.916 71.0675 84.6765
lowerback -27.4658 -1.9054 -9.44111
upperback -7.59907 0.842108 -0.414544
thorax 6.53036 0.668764 5.27222
lowerneck 16.4919 -2.93774 0.547526
upperneck 6.82105 -3.30205 -4.66951
head -0.686734 -1.34604 -1.39774
rshoulderjoint -2.70115 8.31724 -29.0637
rhumerus 346.273 -7.41016 -412.244
rradius 24.8627 -1.51076e-014 0
rwrist -4.05008e-013 4.18107 4.54438e-014
rhand 5.00809 -3.62655 29.4839
lshoulderjoint -1.92304 -5.73751 29.565
lhumerus 357.924 -2.83427 415.38
lradius 20.7407 -2.70347e-014 -1.38752e-013
lwrist -3.96812e-013 -9.64011 -3.14949e-013
lhand 9.19337 7.93377 -33.491
rfemur -23.2178 16.4184 4.08361
rtibia 21.5722 0 7.95139e-016
rfoot -170.319 -43.5788 150.058
rtoes 3.18055e-014 2.99668e-014 4.45278e-014
lfemur -12.2114 -9.34297 -18.3813
ltibia -5.56597e-015 1.43125e-014 2.38542e-015
lfoot -6.64094 7.13828 10.027
ltoes -4.68386e-014 1.79582e-014 1.78906e-015
2238
root 9.14466 3.66784 -0.37351 279.05 71.0047 85.3572
lowerback -27.6753 -1.88548 -9.24995
upperback -7.64608 0.838189 -0.327448
thorax 6.5837 0.671103 5.26326
lowerneck 16.5395 -2.94443 0.477118
upperneck 6.83798 -3.318 -4.68455
head -0.688066 -1.35286 -1.38926
rshoulderjoint -2.69222 8.27726 -29.0886
rhumerus 346.227 -7.28202 -412.193
rradius 24.7611 -1.70955e-014 -1.19271e-013
rwrist 2.35983e-013 4.16185 -2.17647e-013
rhand 5.03895 -3.58553 29.1418
lshoulderjoint -1.93171 -5.79303 29.477
lhumerus 357.475 -2.71623 415.427
lradius 20.3926 4.53229e-014 -1.03368e-014
lwrist 3.35553e-013 -9.67812 1.27042e-014
lhand 9.04417 8.09972 -33.6287
rfemur -22.8317 17.326 4.11497
rtibia 20.7997 -1.90833e-014 -1.59028e-015
rfoot -170.645 -43.7209 149.138
rtoes -3.33958e-014 -4.74101e-014 4.21423e-014
lfemur -12.1801 -9.57807 -18.1318
ltibia -1.66979e-014 1.74931e-014 7.95139e-015
lfoot -6.6481 7.09932 10.0784
ltoes 4.14963e-014 -4.89399e-014 -3.65764e-014
2239
root 9.15305 3.6699 -0.371308 278.268 70.9902 85.9539
lowerback -27.822 -1.86705 -9.05834
upperback -7.68097 0.82463 -0.262084
thorax 6.62177 0.668004 5.22525
lowerneck 16.5343 -2.94591 0.481038
upperneck 6.89048 -3.31335 -4.69818
head -0.670209 -1.34938 -1.3948
rshoulderjoint -2.6807 8.24008 -29.0915
rhumerus 346.217 -6.92537 -412.24
rradius 24.6782 -4.37326e-015 -1.39944e-013
rwrist 1.91311e-014 4.05158 -2.5827e-013
rhand 4.97734 -3.60861 28.9495
lshoulderjoint -1.95435 -5.8465 29.5202
lhumerus 357.016 -2.43393 415.546
lradius 19.9998 5.40694e-014 -5.4467e-014
lwrist 1.61292e-013 -9.61206 -1.03458e-013
lhand 8.9898 8.155 -33.7099
rfemur -22.3718 18.1622 4.1809
rtibia 19.9838 -3.49861e-014 -5.56597e-015
rfoot -170.988 -43.9052 148.33
rtoes 7.63333e-014 -1.50033e-013 -1.04958e-013
lfemur -12.1001 -9.78607 -17.8907
ltibia 6.20208e-014 2.70347e-014 1.90833e-014
lfoot -6.63813 7.13471 10.1395
ltoes -1.717e-013 -9.03088e-014 2.127e-014
2240
root 9.16117 3.67194 -0.369137 277.535 70.9619 86.5373
lowerback -27.9922 -1.85021 -8.90805
upperback -7.69303 0.821921 -0.194948
thorax 6.694 0.666937 5.21729
lowerneck 16.4605 -2.94751 0.467032
upperneck 6.96003 -3.31188 -4.71927
head -0.63531 -1.34931 -1.39992
rshoulderjoint -2.66034 8.1574 -29.1319
rhumerus 346.255 -6.72371 -412.304
rradius 24.5843 1.19271e-015 1.13705e-013
rwrist -4.1765e-013 3.95942 2.29548e-013
rhand 4.97519 -3.51308 28.7752
lshoulderjoint -1.94446 -5.82305 29.5017
lhumerus 356.617 -2.13054 415.63
lradius 19.5961 5.96354e-014 2.3059e-014
lwrist -4.96685e-013 -9.5471 -7.53896e-014
lhand 8.96603 8.23405 -33.7391
rfemur -21.8357 17.9042 4.47172
rtibia 19.1349 2.8625e-014 6.36111e-015
rfoot -171.226 -44.2854 148.561
rtoes 6.52014e-014 -3.97569e-014 3.10104e-014
lfemur -12.0343 -9.99026 -17.6848
ltibia -4.6118e-014 0 -4.77083e-015
lfoot -6.62906 7.14223 10.1847
ltoes -4.47266e-016 2.52301e-014 4.47266e-014
